<svg version="1.1" xmlns="http://www.w3.org/2000/svg" xmlns:xlink="http://www.w3.org/1999/xlink" viewBox="0 0 172 172"><g fill="none" fill-rule="nonzero" stroke="none" stroke-width="1" stroke-linecap="butt" stroke-linejoin="miter" stroke-miterlimit="10" stroke-dasharray="" stroke-dashoffset="0" font-family="none" font-weight="none" font-size="none" text-anchor="none" style="mix-blend-mode: normal"><path d="M0,172v-172h172v172z" fill="none"></path><g fill="#666666"><path d="M154.22646,69.50371c-1.43333,-4.35739 -5.21753,-7.51065 -9.80378,-8.19862l-32.56564,-4.70138l-15.02131,-29.8708c-2.06392,-4.18522 -6.19175,-6.76529 -10.83608,-6.76529c-4.64364,0 -8.77217,2.58007 -10.83538,6.76529l-14.56289,29.52681l-0.45911,0.34399l-32.56494,4.70138c-4.58695,0.68797 -8.37044,3.84124 -9.80378,8.19862c-1.43333,4.41443 -0.22956,9.17319 3.09552,12.44124l23.56392,22.93333l0.17217,0.57319l-5.56117,32.45086c-0.80275,4.52921 1.03161,9.05876 4.8158,11.81065c3.72681,2.6945 8.6,3.09587 12.72853,0.91718l29.12508,-15.3079l29.69897,15.3079c1.77697,0.91753 3.72611,1.37594 5.61855,1.37594c7.50125,0 13.23226,-6.72848 11.92508,-14.10378l-5.56187,-32.45086l23.73678,-23.50653c3.32508,-3.26804 4.52886,-8.02681 3.09552,-12.44124z"></path></g></g></svg>